<mxfile host="app.diagrams.net" agent="Mozilla/5.0 (Macintosh; Intel Mac OS X 10_15_7) AppleWebKit/605.1.15 (KHTML, like Gecko) Version/16.6 Safari/605.1.15" version="26.0.7">
  <diagram id="C5RBs43oDa-KdzZeNtuy" name="Page-1">
    <mxGraphModel dx="948" dy="612" grid="1" gridSize="10" guides="1" tooltips="1" connect="1" arrows="1" fold="1" page="1" pageScale="1" pageWidth="827" pageHeight="1169" math="0" shadow="0">
      <root>
        <mxCell id="WIyWlLk6GJQsqaUBKTNV-0" />
        <mxCell id="WIyWlLk6GJQsqaUBKTNV-1" parent="WIyWlLk6GJQsqaUBKTNV-0" />
        <mxCell id="mkzftAgll9rHKteIRa30-2" value="" style="edgeStyle=orthogonalEdgeStyle;rounded=0;orthogonalLoop=1;jettySize=auto;html=1;" edge="1" parent="WIyWlLk6GJQsqaUBKTNV-1" source="mkzftAgll9rHKteIRa30-0" target="mkzftAgll9rHKteIRa30-1">
          <mxGeometry relative="1" as="geometry" />
        </mxCell>
        <mxCell id="mkzftAgll9rHKteIRa30-0" value="Start" style="rounded=1;whiteSpace=wrap;html=1;" vertex="1" parent="WIyWlLk6GJQsqaUBKTNV-1">
          <mxGeometry x="150" y="90" width="60" height="60" as="geometry" />
        </mxCell>
        <mxCell id="mkzftAgll9rHKteIRa30-4" value="" style="edgeStyle=orthogonalEdgeStyle;rounded=0;orthogonalLoop=1;jettySize=auto;html=1;" edge="1" parent="WIyWlLk6GJQsqaUBKTNV-1" source="mkzftAgll9rHKteIRa30-1" target="mkzftAgll9rHKteIRa30-3">
          <mxGeometry relative="1" as="geometry" />
        </mxCell>
        <mxCell id="mkzftAgll9rHKteIRa30-1" value="Khai bao a, b, sum" style="whiteSpace=wrap;html=1;rounded=1;" vertex="1" parent="WIyWlLk6GJQsqaUBKTNV-1">
          <mxGeometry x="260" y="90" width="120" height="60" as="geometry" />
        </mxCell>
        <mxCell id="mkzftAgll9rHKteIRa30-6" value="" style="edgeStyle=orthogonalEdgeStyle;rounded=0;orthogonalLoop=1;jettySize=auto;html=1;" edge="1" parent="WIyWlLk6GJQsqaUBKTNV-1" source="mkzftAgll9rHKteIRa30-3" target="mkzftAgll9rHKteIRa30-5">
          <mxGeometry relative="1" as="geometry" />
        </mxCell>
        <mxCell id="mkzftAgll9rHKteIRa30-3" value="Doc du lieu a va b" style="whiteSpace=wrap;html=1;rounded=1;" vertex="1" parent="WIyWlLk6GJQsqaUBKTNV-1">
          <mxGeometry x="260" y="200" width="120" height="60" as="geometry" />
        </mxCell>
        <mxCell id="mkzftAgll9rHKteIRa30-8" value="" style="edgeStyle=orthogonalEdgeStyle;rounded=0;orthogonalLoop=1;jettySize=auto;html=1;" edge="1" parent="WIyWlLk6GJQsqaUBKTNV-1" source="mkzftAgll9rHKteIRa30-5" target="mkzftAgll9rHKteIRa30-7">
          <mxGeometry relative="1" as="geometry" />
        </mxCell>
        <mxCell id="mkzftAgll9rHKteIRa30-5" value="sum = a + b" style="whiteSpace=wrap;html=1;rounded=1;" vertex="1" parent="WIyWlLk6GJQsqaUBKTNV-1">
          <mxGeometry x="260" y="290" width="120" height="60" as="geometry" />
        </mxCell>
        <mxCell id="mkzftAgll9rHKteIRa30-10" value="" style="edgeStyle=orthogonalEdgeStyle;rounded=0;orthogonalLoop=1;jettySize=auto;html=1;" edge="1" parent="WIyWlLk6GJQsqaUBKTNV-1" source="mkzftAgll9rHKteIRa30-7" target="mkzftAgll9rHKteIRa30-9">
          <mxGeometry relative="1" as="geometry" />
        </mxCell>
        <mxCell id="mkzftAgll9rHKteIRa30-7" value="In gia tri sum" style="whiteSpace=wrap;html=1;rounded=1;" vertex="1" parent="WIyWlLk6GJQsqaUBKTNV-1">
          <mxGeometry x="260" y="370" width="120" height="50" as="geometry" />
        </mxCell>
        <mxCell id="mkzftAgll9rHKteIRa30-9" value="Stop" style="whiteSpace=wrap;html=1;rounded=1;" vertex="1" parent="WIyWlLk6GJQsqaUBKTNV-1">
          <mxGeometry x="260" y="495" width="120" height="60" as="geometry" />
        </mxCell>
      </root>
    </mxGraphModel>
  </diagram>
</mxfile>
